<mxfile host="app.diagrams.net" modified="2024-04-06T10:47:40.557Z" agent="Mozilla/5.0 (Windows NT 10.0; Win64; x64) AppleWebKit/537.36 (KHTML, like Gecko) Chrome/122.0.0.0 Safari/537.36 OPR/108.0.0.0" etag="DaJuTZifnZ-Hr4vzHRlG" version="24.2.2" type="github">
  <diagram name="Page-1" id="Xa4yKJopRgLJnatAYZEr">
    <mxGraphModel dx="1423" dy="799" grid="1" gridSize="10" guides="1" tooltips="1" connect="1" arrows="1" fold="1" page="1" pageScale="1" pageWidth="850" pageHeight="1100" math="0" shadow="0">
      <root>
        <mxCell id="0" />
        <mxCell id="1" parent="0" />
        <mxCell id="JbFHPF_kHavUvdsXXp3s-4" style="edgeStyle=orthogonalEdgeStyle;rounded=0;orthogonalLoop=1;jettySize=auto;html=1;endArrow=cross;endFill=0;" edge="1" parent="1" source="JbFHPF_kHavUvdsXXp3s-1">
          <mxGeometry relative="1" as="geometry">
            <mxPoint x="90" y="540" as="targetPoint" />
          </mxGeometry>
        </mxCell>
        <mxCell id="JbFHPF_kHavUvdsXXp3s-1" value="Pharmacy Manager" style="rounded=0;whiteSpace=wrap;html=1;" vertex="1" parent="1">
          <mxGeometry x="30" y="30" width="120" height="60" as="geometry" />
        </mxCell>
        <mxCell id="JbFHPF_kHavUvdsXXp3s-5" style="edgeStyle=orthogonalEdgeStyle;rounded=0;orthogonalLoop=1;jettySize=auto;html=1;endArrow=cross;endFill=0;" edge="1" parent="1" source="JbFHPF_kHavUvdsXXp3s-7">
          <mxGeometry relative="1" as="geometry">
            <mxPoint x="380" y="540" as="targetPoint" />
            <Array as="points">
              <mxPoint x="380" y="380" />
              <mxPoint x="381" y="380" />
            </Array>
          </mxGeometry>
        </mxCell>
        <mxCell id="JbFHPF_kHavUvdsXXp3s-2" value="POS System" style="rounded=0;whiteSpace=wrap;html=1;" vertex="1" parent="1">
          <mxGeometry x="320" y="30" width="120" height="60" as="geometry" />
        </mxCell>
        <mxCell id="JbFHPF_kHavUvdsXXp3s-6" style="edgeStyle=orthogonalEdgeStyle;rounded=0;orthogonalLoop=1;jettySize=auto;html=1;endArrow=cross;endFill=0;" edge="1" parent="1" source="JbFHPF_kHavUvdsXXp3s-14">
          <mxGeometry relative="1" as="geometry">
            <mxPoint x="660" y="540" as="targetPoint" />
            <Array as="points">
              <mxPoint x="660" y="375" />
              <mxPoint x="661" y="375" />
            </Array>
          </mxGeometry>
        </mxCell>
        <mxCell id="JbFHPF_kHavUvdsXXp3s-3" value="Employee Service" style="rounded=0;whiteSpace=wrap;html=1;" vertex="1" parent="1">
          <mxGeometry x="600" y="30" width="120" height="60" as="geometry" />
        </mxCell>
        <mxCell id="JbFHPF_kHavUvdsXXp3s-8" value="" style="edgeStyle=orthogonalEdgeStyle;rounded=0;orthogonalLoop=1;jettySize=auto;html=1;endArrow=none;endFill=0;" edge="1" parent="1" source="JbFHPF_kHavUvdsXXp3s-2" target="JbFHPF_kHavUvdsXXp3s-7">
          <mxGeometry relative="1" as="geometry">
            <mxPoint x="380" y="540" as="targetPoint" />
            <mxPoint x="380" y="90" as="sourcePoint" />
            <Array as="points">
              <mxPoint x="380" y="150" />
              <mxPoint x="380" y="150" />
            </Array>
          </mxGeometry>
        </mxCell>
        <mxCell id="JbFHPF_kHavUvdsXXp3s-7" value="" style="html=1;points=[[0,0,0,0,5],[0,1,0,0,-5],[1,0,0,0,5],[1,1,0,0,-5]];perimeter=orthogonalPerimeter;outlineConnect=0;targetShapes=umlLifeline;portConstraint=eastwest;newEdgeStyle={&quot;curved&quot;:0,&quot;rounded&quot;:0};" vertex="1" parent="1">
          <mxGeometry x="375" y="140" width="10" height="260" as="geometry" />
        </mxCell>
        <mxCell id="JbFHPF_kHavUvdsXXp3s-9" value="" style="endArrow=classic;html=1;rounded=0;" edge="1" parent="1" target="JbFHPF_kHavUvdsXXp3s-7">
          <mxGeometry width="50" height="50" relative="1" as="geometry">
            <mxPoint x="90" y="150" as="sourcePoint" />
            <mxPoint x="450" y="270" as="targetPoint" />
          </mxGeometry>
        </mxCell>
        <mxCell id="JbFHPF_kHavUvdsXXp3s-10" value="Login" style="edgeLabel;html=1;align=center;verticalAlign=middle;resizable=0;points=[];" vertex="1" connectable="0" parent="JbFHPF_kHavUvdsXXp3s-9">
          <mxGeometry x="-0.0119" y="-2" relative="1" as="geometry">
            <mxPoint as="offset" />
          </mxGeometry>
        </mxCell>
        <mxCell id="JbFHPF_kHavUvdsXXp3s-11" value="" style="endArrow=classic;html=1;rounded=0;" edge="1" parent="1" source="JbFHPF_kHavUvdsXXp3s-7">
          <mxGeometry width="50" height="50" relative="1" as="geometry">
            <mxPoint x="390" y="150" as="sourcePoint" />
            <mxPoint x="660" y="150" as="targetPoint" />
          </mxGeometry>
        </mxCell>
        <mxCell id="JbFHPF_kHavUvdsXXp3s-12" value="Request information" style="edgeLabel;html=1;align=center;verticalAlign=middle;resizable=0;points=[];" vertex="1" connectable="0" parent="JbFHPF_kHavUvdsXXp3s-11">
          <mxGeometry x="-0.0996" y="1" relative="1" as="geometry">
            <mxPoint as="offset" />
          </mxGeometry>
        </mxCell>
        <mxCell id="JbFHPF_kHavUvdsXXp3s-13" value="" style="endArrow=classic;html=1;rounded=0;dashed=1;" edge="1" parent="1" target="JbFHPF_kHavUvdsXXp3s-7">
          <mxGeometry width="50" height="50" relative="1" as="geometry">
            <mxPoint x="660" y="180" as="sourcePoint" />
            <mxPoint x="450" y="270" as="targetPoint" />
          </mxGeometry>
        </mxCell>
        <mxCell id="JbFHPF_kHavUvdsXXp3s-16" value="Send the response" style="edgeLabel;html=1;align=center;verticalAlign=middle;resizable=0;points=[];" vertex="1" connectable="0" parent="JbFHPF_kHavUvdsXXp3s-13">
          <mxGeometry x="0.1142" y="1" relative="1" as="geometry">
            <mxPoint as="offset" />
          </mxGeometry>
        </mxCell>
        <mxCell id="JbFHPF_kHavUvdsXXp3s-15" value="" style="edgeStyle=orthogonalEdgeStyle;rounded=0;orthogonalLoop=1;jettySize=auto;html=1;endArrow=none;endFill=0;" edge="1" parent="1" source="JbFHPF_kHavUvdsXXp3s-3" target="JbFHPF_kHavUvdsXXp3s-14">
          <mxGeometry relative="1" as="geometry">
            <mxPoint x="660" y="540" as="targetPoint" />
            <mxPoint x="660" y="90" as="sourcePoint" />
            <Array as="points">
              <mxPoint x="660" y="140" />
              <mxPoint x="660" y="140" />
            </Array>
          </mxGeometry>
        </mxCell>
        <mxCell id="JbFHPF_kHavUvdsXXp3s-14" value="" style="html=1;points=[[0,0,0,0,5],[0,1,0,0,-5],[1,0,0,0,5],[1,1,0,0,-5]];perimeter=orthogonalPerimeter;outlineConnect=0;targetShapes=umlLifeline;portConstraint=eastwest;newEdgeStyle={&quot;curved&quot;:0,&quot;rounded&quot;:0};" vertex="1" parent="1">
          <mxGeometry x="655" y="130" width="10" height="100" as="geometry" />
        </mxCell>
        <mxCell id="JbFHPF_kHavUvdsXXp3s-17" value="" style="endArrow=classic;html=1;rounded=0;" edge="1" parent="1" source="JbFHPF_kHavUvdsXXp3s-7">
          <mxGeometry width="50" height="50" relative="1" as="geometry">
            <mxPoint x="400" y="320" as="sourcePoint" />
            <mxPoint x="90" y="190" as="targetPoint" />
          </mxGeometry>
        </mxCell>
        <mxCell id="JbFHPF_kHavUvdsXXp3s-18" value="Display the relevant information" style="edgeLabel;html=1;align=center;verticalAlign=middle;resizable=0;points=[];" vertex="1" connectable="0" parent="JbFHPF_kHavUvdsXXp3s-17">
          <mxGeometry x="0.0049" y="1" relative="1" as="geometry">
            <mxPoint as="offset" />
          </mxGeometry>
        </mxCell>
        <mxCell id="JbFHPF_kHavUvdsXXp3s-19" value="" style="endArrow=classic;html=1;rounded=0;" edge="1" parent="1" source="JbFHPF_kHavUvdsXXp3s-7">
          <mxGeometry width="50" height="50" relative="1" as="geometry">
            <mxPoint x="400" y="320" as="sourcePoint" />
            <mxPoint x="660" y="270" as="targetPoint" />
          </mxGeometry>
        </mxCell>
        <mxCell id="JbFHPF_kHavUvdsXXp3s-20" value="Calculate the payroll" style="edgeLabel;html=1;align=center;verticalAlign=middle;resizable=0;points=[];" vertex="1" connectable="0" parent="JbFHPF_kHavUvdsXXp3s-19">
          <mxGeometry x="-0.1069" y="-2" relative="1" as="geometry">
            <mxPoint as="offset" />
          </mxGeometry>
        </mxCell>
        <mxCell id="JbFHPF_kHavUvdsXXp3s-22" value="" style="html=1;points=[[0,0,0,0,5],[0,1,0,0,-5],[1,0,0,0,5],[1,1,0,0,-5]];perimeter=orthogonalPerimeter;outlineConnect=0;targetShapes=umlLifeline;portConstraint=eastwest;newEdgeStyle={&quot;curved&quot;:0,&quot;rounded&quot;:0};" vertex="1" parent="1">
          <mxGeometry x="655" y="260" width="10" height="80" as="geometry" />
        </mxCell>
        <mxCell id="JbFHPF_kHavUvdsXXp3s-23" value="" style="endArrow=classic;html=1;rounded=0;" edge="1" parent="1" source="JbFHPF_kHavUvdsXXp3s-7" target="JbFHPF_kHavUvdsXXp3s-14">
          <mxGeometry width="50" height="50" relative="1" as="geometry">
            <mxPoint x="390" y="230" as="sourcePoint" />
            <mxPoint x="450" y="270" as="targetPoint" />
          </mxGeometry>
        </mxCell>
        <mxCell id="JbFHPF_kHavUvdsXXp3s-24" value="Update the employee details" style="edgeLabel;html=1;align=center;verticalAlign=middle;resizable=0;points=[];" vertex="1" connectable="0" parent="JbFHPF_kHavUvdsXXp3s-23">
          <mxGeometry x="-0.0053" relative="1" as="geometry">
            <mxPoint as="offset" />
          </mxGeometry>
        </mxCell>
        <mxCell id="JbFHPF_kHavUvdsXXp3s-40" style="edgeStyle=orthogonalEdgeStyle;rounded=0;orthogonalLoop=1;jettySize=auto;html=1;endArrow=cross;endFill=0;" edge="1" parent="1" source="JbFHPF_kHavUvdsXXp3s-25">
          <mxGeometry relative="1" as="geometry">
            <mxPoint x="1160" y="460" as="targetPoint" />
          </mxGeometry>
        </mxCell>
        <mxCell id="JbFHPF_kHavUvdsXXp3s-25" value="Pharmacy Owner" style="rounded=0;whiteSpace=wrap;html=1;" vertex="1" parent="1">
          <mxGeometry x="1100" y="30" width="120" height="60" as="geometry" />
        </mxCell>
        <mxCell id="JbFHPF_kHavUvdsXXp3s-29" value="" style="html=1;points=[[0,0,0,0,5],[0,1,0,0,-5],[1,0,0,0,5],[1,1,0,0,-5]];perimeter=orthogonalPerimeter;outlineConnect=0;targetShapes=umlLifeline;portConstraint=eastwest;newEdgeStyle={&quot;curved&quot;:0,&quot;rounded&quot;:0};" vertex="1" parent="1">
          <mxGeometry x="1155" y="200" width="10" height="70" as="geometry" />
        </mxCell>
        <mxCell id="JbFHPF_kHavUvdsXXp3s-33" style="edgeStyle=orthogonalEdgeStyle;rounded=0;orthogonalLoop=1;jettySize=auto;html=1;endArrow=cross;endFill=0;" edge="1" parent="1" source="JbFHPF_kHavUvdsXXp3s-34">
          <mxGeometry relative="1" as="geometry">
            <mxPoint x="855" y="470" as="targetPoint" />
            <Array as="points">
              <mxPoint x="855" y="370" />
              <mxPoint x="856" y="370" />
            </Array>
          </mxGeometry>
        </mxCell>
        <mxCell id="JbFHPF_kHavUvdsXXp3s-32" value="Web App" style="html=1;whiteSpace=wrap;" vertex="1" parent="1">
          <mxGeometry x="800" y="30" width="110" height="50" as="geometry" />
        </mxCell>
        <mxCell id="JbFHPF_kHavUvdsXXp3s-35" value="" style="edgeStyle=orthogonalEdgeStyle;rounded=0;orthogonalLoop=1;jettySize=auto;html=1;endArrow=none;endFill=0;" edge="1" parent="1" source="JbFHPF_kHavUvdsXXp3s-32" target="JbFHPF_kHavUvdsXXp3s-34">
          <mxGeometry relative="1" as="geometry">
            <mxPoint x="855" y="470" as="targetPoint" />
            <mxPoint x="855" y="80" as="sourcePoint" />
            <Array as="points">
              <mxPoint x="855" y="200" />
              <mxPoint x="855" y="200" />
            </Array>
          </mxGeometry>
        </mxCell>
        <mxCell id="JbFHPF_kHavUvdsXXp3s-34" value="" style="html=1;points=[[0,0,0,0,5],[0,1,0,0,-5],[1,0,0,0,5],[1,1,0,0,-5]];perimeter=orthogonalPerimeter;outlineConnect=0;targetShapes=umlLifeline;portConstraint=eastwest;newEdgeStyle={&quot;curved&quot;:0,&quot;rounded&quot;:0};" vertex="1" parent="1">
          <mxGeometry x="850" y="190" width="10" height="80" as="geometry" />
        </mxCell>
        <mxCell id="JbFHPF_kHavUvdsXXp3s-37" value="" style="endArrow=none;startArrow=classic;html=1;rounded=0;entryX=0;entryY=0;entryDx=0;entryDy=5;entryPerimeter=0;endFill=0;" edge="1" parent="1" source="JbFHPF_kHavUvdsXXp3s-34" target="JbFHPF_kHavUvdsXXp3s-29">
          <mxGeometry width="50" height="50" relative="1" as="geometry">
            <mxPoint x="810" y="270" as="sourcePoint" />
            <mxPoint x="860" y="220" as="targetPoint" />
          </mxGeometry>
        </mxCell>
        <mxCell id="JbFHPF_kHavUvdsXXp3s-38" value="Request information" style="edgeLabel;html=1;align=center;verticalAlign=middle;resizable=0;points=[];" vertex="1" connectable="0" parent="JbFHPF_kHavUvdsXXp3s-37">
          <mxGeometry x="-0.0207" y="-1" relative="1" as="geometry">
            <mxPoint as="offset" />
          </mxGeometry>
        </mxCell>
        <mxCell id="JbFHPF_kHavUvdsXXp3s-41" value="" style="endArrow=classic;html=1;rounded=0;entryX=0.5;entryY=0.571;entryDx=0;entryDy=0;entryPerimeter=0;" edge="1" parent="1" source="JbFHPF_kHavUvdsXXp3s-34" target="JbFHPF_kHavUvdsXXp3s-29">
          <mxGeometry width="50" height="50" relative="1" as="geometry">
            <mxPoint x="810" y="270" as="sourcePoint" />
            <mxPoint x="860" y="220" as="targetPoint" />
          </mxGeometry>
        </mxCell>
        <mxCell id="JbFHPF_kHavUvdsXXp3s-42" value="Display" style="edgeLabel;html=1;align=center;verticalAlign=middle;resizable=0;points=[];" vertex="1" connectable="0" parent="JbFHPF_kHavUvdsXXp3s-41">
          <mxGeometry x="-0.0467" y="1" relative="1" as="geometry">
            <mxPoint as="offset" />
          </mxGeometry>
        </mxCell>
        <mxCell id="JbFHPF_kHavUvdsXXp3s-43" value="" style="endArrow=classic;html=1;rounded=0;" edge="1" parent="1" source="JbFHPF_kHavUvdsXXp3s-14">
          <mxGeometry width="50" height="50" relative="1" as="geometry">
            <mxPoint x="810" y="270" as="sourcePoint" />
            <mxPoint x="850" y="220" as="targetPoint" />
          </mxGeometry>
        </mxCell>
        <mxCell id="JbFHPF_kHavUvdsXXp3s-44" value="Send the response" style="edgeLabel;html=1;align=center;verticalAlign=middle;resizable=0;points=[];" vertex="1" connectable="0" parent="JbFHPF_kHavUvdsXXp3s-43">
          <mxGeometry x="0.2432" relative="1" as="geometry">
            <mxPoint as="offset" />
          </mxGeometry>
        </mxCell>
        <mxCell id="JbFHPF_kHavUvdsXXp3s-45" value="" style="endArrow=classic;html=1;rounded=0;dashed=1;" edge="1" parent="1" source="JbFHPF_kHavUvdsXXp3s-34" target="JbFHPF_kHavUvdsXXp3s-14">
          <mxGeometry width="50" height="50" relative="1" as="geometry">
            <mxPoint x="810" y="270" as="sourcePoint" />
            <mxPoint x="860" y="220" as="targetPoint" />
            <Array as="points">
              <mxPoint x="700" y="200" />
            </Array>
          </mxGeometry>
        </mxCell>
        <mxCell id="JbFHPF_kHavUvdsXXp3s-46" value="Request information" style="edgeLabel;html=1;align=center;verticalAlign=middle;resizable=0;points=[];" vertex="1" connectable="0" parent="JbFHPF_kHavUvdsXXp3s-45">
          <mxGeometry x="-0.027" y="-2" relative="1" as="geometry">
            <mxPoint as="offset" />
          </mxGeometry>
        </mxCell>
      </root>
    </mxGraphModel>
  </diagram>
</mxfile>
